<svg width="28" height="31" viewBox="0 0 28 31" fill="none" xmlns="http://www.w3.org/2000/svg">
<path d="M2 13.5C0.895431 13.5 0 14.3954 0 15.5C0 16.6046 0.895431 17.5 2 17.5V13.5ZM27.4142 16.9142C28.1953 16.1332 28.1953 14.8668 27.4142 14.0858L14.6863 1.35786C13.9052 0.576816 12.6389 0.576816 11.8579 1.35786C11.0768 2.13891 11.0768 3.40524 11.8579 4.18629L23.1716 15.5L11.8579 26.8137C11.0768 27.5948 11.0768 28.8611 11.8579 29.6421C12.6389 30.4232 13.9052 30.4232 14.6863 29.6421L27.4142 16.9142ZM2 17.5H26V13.5H2V17.5Z" fill="white"/>
</svg>
