<svg width="40" height="40" viewBox="0 0 40 40" fill="none" xmlns="http://www.w3.org/2000/svg">
<g clip-path="url(#clip0_336_2359)">
<path d="M21.7719 14.4922C21.2545 14.4922 20.8351 14.9116 20.8351 15.429V33.1338C20.8351 33.6509 21.2545 34.0706 21.7719 34.0706C22.2893 34.0706 22.7086 33.6509 22.7086 33.1338V15.429C22.7086 14.9116 22.2893 14.4922 21.7719 14.4922ZM10.718 14.4922C10.2006 14.4922 9.78125 14.9116 9.78125 15.429V33.1338C9.78125 33.6509 10.2006 34.0706 10.718 34.0706C11.2355 34.0706 11.6548 33.6509 11.6548 33.1338V15.429C11.6548 14.9116 11.2355 14.4922 10.718 14.4922Z" fill="black"/>
<path d="M2.66055 11.9084V34.9883C2.66055 36.3525 3.16078 37.6336 4.0346 38.5527C4.46487 39.0088 4.98358 39.3723 5.55905 39.6211C6.13453 39.87 6.75469 39.9989 7.38166 40H25.1056C25.7326 39.999 26.3528 39.8701 26.9283 39.6212C27.5038 39.3724 28.0225 39.0088 28.4527 38.5527C29.3266 37.6336 29.8268 36.3525 29.8268 34.9883V11.9084C31.5638 11.4473 32.6894 9.76919 32.4571 7.9868C32.2243 6.2047 30.7061 4.87168 28.9086 4.8713H24.1125V3.70035C24.1152 3.21289 24.021 2.72975 23.8355 2.27898C23.6499 1.82821 23.3766 1.41879 23.0316 1.0745C22.6864 0.730239 22.2762 0.457986 21.825 0.273551C21.3737 0.0891162 20.8903 -0.00382619 20.4028 0.000121429H12.0846C11.5971 -0.00383863 11.1137 0.0890977 10.6624 0.273533C10.2111 0.457969 9.80094 0.730227 9.45575 1.0745C9.11066 1.41879 8.83741 1.82821 8.65185 2.27898C8.46629 2.72975 8.37212 3.21289 8.37482 3.70035V4.8713H3.57877C1.7813 4.87168 0.263082 6.2047 0.0302956 7.9868C-0.202022 9.76919 0.923502 11.4473 2.66055 11.9084ZM25.1056 38.1265H7.38175C5.78007 38.1265 4.53408 36.7506 4.53408 34.9883V11.9907H27.9532V34.9883C27.9532 36.7507 26.7073 38.1265 25.1056 38.1265ZM10.2484 3.70035C10.2453 3.45883 10.2908 3.21917 10.3821 2.99557C10.4735 2.77198 10.6088 2.56901 10.7801 2.39871C10.9513 2.22832 11.155 2.09405 11.3791 2.00385C11.6032 1.91366 11.8431 1.86939 12.0846 1.87365H20.4028C20.6443 1.86939 20.8842 1.91366 21.1083 2.00385C21.3324 2.09405 21.5361 2.22832 21.7073 2.39871C21.8786 2.56899 22.014 2.77196 22.1053 2.99556C22.1966 3.21916 22.2421 3.45884 22.239 3.70035V4.8713H10.2484V3.70035ZM3.57877 6.74484H28.9088C29.8401 6.74484 30.595 7.49978 30.595 8.43102C30.595 9.36226 29.8401 10.1172 28.9088 10.1172H3.57867C2.64743 10.1172 1.89249 9.36226 1.89249 8.43102C1.89249 7.49978 2.64753 6.74484 3.57877 6.74484Z" fill="black"/>
<path d="M16.2454 14.4922C15.728 14.4922 15.3086 14.9116 15.3086 15.429V33.1338C15.3086 33.6509 15.728 34.0706 16.2454 34.0706C16.7628 34.0706 17.1821 33.6509 17.1821 33.1338V15.429C17.1821 14.9116 16.7628 14.4922 16.2454 14.4922Z" fill="black"/>
</g>
<defs>
<clipPath id="clip0_336_2359">
<rect width="40" height="40" fill="white"/>
</clipPath>
</defs>
</svg>
