<svg width="34" height="29" viewBox="0 0 34 29" fill="none" xmlns="http://www.w3.org/2000/svg">
<path d="M17 29C16.7806 29.0013 16.5632 28.9593 16.3601 28.8763C16.157 28.7934 15.9723 28.6712 15.8166 28.5167L2.86662 15.55C1.24222 13.9087 0.331055 11.6926 0.331055 9.38336C0.331055 7.07408 1.24222 4.85807 2.86662 3.21669C4.50372 1.58421 6.72133 0.66748 9.03328 0.66748C11.3452 0.66748 13.5628 1.58421 15.2 3.21669L17 5.01669L18.7999 3.21669C20.4371 1.58421 22.6547 0.66748 24.9666 0.66748C27.2786 0.66748 29.4962 1.58421 31.1333 3.21669C32.7577 4.85807 33.6688 7.07408 33.6688 9.38336C33.6688 11.6926 32.7577 13.9087 31.1333 15.55L18.1833 28.5167C18.0275 28.6712 17.8429 28.7934 17.6398 28.8763C17.4367 28.9593 17.2193 29.0013 17 29ZM9.03328 4.00003C8.32774 3.99683 7.62858 4.13366 6.9763 4.40259C6.32401 4.67151 5.73157 5.06719 5.23328 5.56669C4.22672 6.57856 3.66168 7.94777 3.66168 9.37503C3.66168 10.8023 4.22672 12.1715 5.23328 13.1834L17 24.9667L28.7666 13.1834C29.7732 12.1715 30.3382 10.8023 30.3382 9.37503C30.3382 7.94777 29.7732 6.57856 28.7666 5.56669C27.7394 4.59621 26.3798 4.05552 24.9666 4.05552C23.5535 4.05552 22.1938 4.59621 21.1666 5.56669L18.1833 8.56669C18.0283 8.72291 17.844 8.8469 17.6409 8.93151C17.4378 9.01613 17.22 9.05969 17 9.05969C16.7799 9.05969 16.5621 9.01613 16.359 8.93151C16.1559 8.8469 15.9716 8.72291 15.8166 8.56669L12.8333 5.56669C12.335 5.06719 11.7426 4.67151 11.0903 4.40259C10.438 4.13366 9.73882 3.99683 9.03328 4.00003Z" fill="#212125"/>
</svg>
