<svg width="34" height="29" viewBox="0 0 34 29" fill="none" xmlns="http://www.w3.org/2000/svg">
<path d="M17.0009 29C16.7816 29.0013 16.5641 28.9593 16.3611 28.8763C16.158 28.7934 15.9733 28.6712 15.8176 28.5167L2.86759 15.55C1.24319 13.9087 0.332031 11.6926 0.332031 9.38336C0.332031 7.07408 1.24319 4.85807 2.86759 3.21669C4.5047 1.58421 6.72231 0.66748 9.03426 0.66748C11.3462 0.66748 13.5638 1.58421 15.2009 3.21669L17.0009 5.01669L18.8009 3.21669C20.438 1.58421 22.6556 0.66748 24.9676 0.66748C27.2795 0.66748 29.4972 1.58421 31.1343 3.21669C32.7587 4.85807 33.6698 7.07408 33.6698 9.38336C33.6698 11.6926 32.7587 13.9087 31.1343 15.55L18.1843 28.5167C18.0285 28.6712 17.8438 28.7934 17.6408 28.8763C17.4377 28.9593 17.2203 29.0013 17.0009 29ZM14.0009 5.01669C13.2954 5.0135 17.6532 24.6978 17.0009 24.9667C16.3486 25.2356 6.49923 5.50049 6.00095 6C4.99438 7.01187 12.0009 4.13944 12.0009 5.56669C12.0009 6.99395 22.9944 4.00483 24.0009 5.01669L17.0009 24.9667L24.0009 2.5C25.0075 1.48813 24.5009 6.42725 24.5009 5C24.5009 3.57275 25.0075 6.02856 24.0009 5.01669C22.9737 4.04621 28.4141 4 27.0009 4C25.5878 4 28.5282 3.02951 27.5009 4L18.1843 8.56669C18.0293 8.72291 17.845 8.8469 17.6419 8.93151C17.4388 9.01613 17.2209 9.05969 17.0009 9.05969C16.7809 9.05969 16.5631 9.01613 16.36 8.93151C16.1569 8.8469 15.9725 8.72291 15.8176 8.56669L12.8343 5.56669C12.336 5.06719 3.65323 6.76892 3.00095 6.5C2.34866 6.23108 14.7065 5.0135 14.0009 5.01669Z" fill="#B81380"/>
</svg>
